<svg width="131" height="23" viewBox="0 0 131 23" fill="none" xmlns="http://www.w3.org/2000/svg">
<path d="M20.1308 8.41929C20.0731 8.24948 19.967 8.10027 19.8255 7.99008C19.684 7.87989 19.5134 7.81355 19.3346 7.79924L14.1054 7.38374L11.8426 2.37472C11.7706 2.21339 11.6533 2.07636 11.5051 1.98018C11.3569 1.88399 11.184 1.83276 11.0073 1.83266C10.8306 1.83257 10.6577 1.88361 10.5094 1.97963C10.361 2.07565 10.2437 2.21255 10.1714 2.3738L7.9086 7.38374L2.67945 7.79924C2.50376 7.81316 2.3358 7.8774 2.19566 7.98428C2.05552 8.09115 1.94914 8.23614 1.88925 8.40189C1.82935 8.56764 1.81848 8.74714 1.85793 8.91891C1.89737 9.09068 1.98547 9.24745 2.11168 9.37046L5.97599 13.1375L4.60931 19.0555C4.56781 19.2347 4.58112 19.4221 4.64749 19.5936C4.71386 19.7651 4.83024 19.9127 4.98153 20.0172C5.13282 20.1217 5.31202 20.1784 5.4959 20.1798C5.67977 20.1812 5.85982 20.1273 6.01268 20.0251L11.007 16.6955L16.0014 20.0251C16.1576 20.1288 16.3419 20.1822 16.5294 20.1781C16.7168 20.174 16.8986 20.1125 17.0501 20.0021C17.2017 19.8916 17.3157 19.7373 17.377 19.5601C17.4383 19.3828 17.4438 19.1911 17.3928 19.0106L15.7152 13.1403L19.8758 9.39615C20.1482 9.15033 20.2482 8.76692 20.1308 8.41929V8.41929Z" fill="#F3CD03"/>
<path d="M47.1457 8.41929C47.0881 8.24948 46.982 8.10027 46.8405 7.99008C46.699 7.87989 46.5283 7.81355 46.3496 7.79924L41.1204 7.38374L38.8576 2.37472C38.7855 2.21339 38.6683 2.07636 38.5201 1.98018C38.3719 1.88399 38.199 1.83276 38.0223 1.83266C37.8456 1.83257 37.6727 1.88361 37.5243 1.97963C37.376 2.07565 37.2586 2.21255 37.1864 2.3738L34.9236 7.38374L29.6944 7.79924C29.5187 7.81316 29.3508 7.8774 29.2106 7.98428C29.0705 8.09115 28.9641 8.23614 28.9042 8.40189C28.8443 8.56764 28.8335 8.74714 28.8729 8.91891C28.9124 9.09068 29.0005 9.24745 29.1267 9.37046L32.991 13.1375L31.6243 19.0555C31.5828 19.2347 31.5961 19.4221 31.6625 19.5936C31.7288 19.7651 31.8452 19.9127 31.9965 20.0172C32.1478 20.1217 32.327 20.1784 32.5109 20.1798C32.6948 20.1812 32.8748 20.1273 33.0277 20.0251L38.022 16.6955L43.0163 20.0251C43.1726 20.1288 43.3568 20.1822 43.5443 20.1781C43.7318 20.174 43.9136 20.1125 44.0651 20.0021C44.2166 19.8916 44.3307 19.7373 44.392 19.5601C44.4532 19.3828 44.4588 19.1911 44.4078 19.0106L42.7302 13.1403L46.8907 9.39615C47.1632 9.15033 47.2631 8.76692 47.1457 8.41929V8.41929Z" fill="#F3CD03"/>
<path d="M74.1568 8.41929C74.0992 8.24948 73.993 8.10027 73.8516 7.99008C73.7101 7.87989 73.5394 7.81355 73.3607 7.79924L68.1315 7.38374L65.8687 2.37472C65.7966 2.21339 65.6794 2.07636 65.5312 1.98018C65.383 1.88399 65.2101 1.83276 65.0334 1.83266C64.8567 1.83257 64.6837 1.88361 64.5354 1.97963C64.3871 2.07565 64.2697 2.21255 64.1975 2.3738L61.9347 7.38374L56.7055 7.79924C56.5298 7.81316 56.3619 7.8774 56.2217 7.98428C56.0816 8.09115 55.9752 8.23614 55.9153 8.40189C55.8554 8.56764 55.8445 8.74714 55.884 8.91891C55.9234 9.09068 56.0115 9.24745 56.1377 9.37046L60.0021 13.1375L58.6354 19.0555C58.5939 19.2347 58.6072 19.4221 58.6736 19.5936C58.7399 19.7651 58.8563 19.9127 59.0076 20.0172C59.1589 20.1217 59.3381 20.1784 59.522 20.1798C59.7058 20.1812 59.8859 20.1273 60.0387 20.0251L65.0331 16.6955L70.0274 20.0251C70.1837 20.1288 70.3679 20.1822 70.5554 20.1781C70.7429 20.174 70.9246 20.1125 71.0762 20.0021C71.2277 19.8916 71.3418 19.7373 71.4031 19.5601C71.4643 19.3828 71.4698 19.1911 71.4189 19.0106L69.7412 13.1403L73.9018 9.39615C74.1742 9.15033 74.2742 8.76692 74.1568 8.41929V8.41929Z" fill="#F3CD03"/>
<path d="M101.171 8.41929C101.113 8.24948 101.007 8.10027 100.866 7.99008C100.724 7.87989 100.553 7.81355 100.375 7.79924L95.1455 7.38374L92.8827 2.37472C92.8107 2.21339 92.6934 2.07636 92.5452 1.98018C92.397 1.88399 92.2241 1.83276 92.0474 1.83266C91.8707 1.83257 91.6978 1.88361 91.5495 1.97963C91.4011 2.07565 91.2838 2.21255 91.2115 2.3738L88.9487 7.38374L83.7196 7.79924C83.5439 7.81316 83.3759 7.8774 83.2358 7.98428C83.0956 8.09115 82.9892 8.23614 82.9293 8.40189C82.8695 8.56764 82.8586 8.74714 82.898 8.91891C82.9375 9.09068 83.0256 9.24745 83.1518 9.37046L87.0161 13.1375L85.6494 19.0555C85.6079 19.2347 85.6212 19.4221 85.6876 19.5936C85.754 19.7651 85.8703 19.9127 86.0216 20.0172C86.1729 20.1217 86.3521 20.1784 86.536 20.1798C86.7199 20.1812 86.8999 20.1273 87.0528 20.0251L92.0471 16.6955L97.0415 20.0251C97.1977 20.1288 97.382 20.1822 97.5695 20.1781C97.7569 20.174 97.9387 20.1125 98.0902 20.0021C98.2418 19.8916 98.3558 19.7373 98.4171 19.5601C98.4784 19.3828 98.4839 19.1911 98.4329 19.0106L96.7553 13.1403L100.916 9.39615C101.188 9.15033 101.288 8.76692 101.171 8.41929V8.41929Z" fill="#F3CD03"/>
<path d="M114.032 13.1376L112.665 19.0556C112.623 19.2348 112.636 19.4226 112.702 19.5945C112.768 19.7664 112.884 19.9143 113.036 20.019C113.187 20.1237 113.367 20.1803 113.551 20.1814C113.735 20.1825 113.915 20.1281 114.068 20.0252L119.062 16.6956L124.056 20.0252C124.213 20.1289 124.397 20.1823 124.584 20.1782C124.772 20.1741 124.954 20.1126 125.105 20.0022C125.257 19.8917 125.371 19.7374 125.432 19.5602C125.493 19.3829 125.499 19.1912 125.448 19.0107L123.77 13.1404L127.931 9.39625C128.064 9.27626 128.159 9.11985 128.205 8.94635C128.25 8.77286 128.243 8.58989 128.186 8.42007C128.128 8.25026 128.022 8.10104 127.881 7.99088C127.739 7.88072 127.568 7.81445 127.39 7.80026L122.161 7.38383L119.898 2.37482C119.826 2.21353 119.708 2.07657 119.56 1.98046C119.412 1.88436 119.239 1.83322 119.062 1.83322C118.885 1.83322 118.712 1.88436 118.564 1.98046C118.416 2.07657 118.299 2.21353 118.227 2.37482L115.964 7.38383L110.735 7.79934C110.559 7.81326 110.391 7.8775 110.251 7.98438C110.111 8.09125 110.004 8.23624 109.944 8.40199C109.884 8.56774 109.874 8.74724 109.913 8.91901C109.952 9.09078 110.041 9.24755 110.167 9.37056L114.032 13.1376V13.1376ZM116.649 9.16969C116.813 9.15679 116.97 9.10009 117.104 9.00552C117.238 8.91095 117.345 8.782 117.412 8.63219L119.062 4.98068L120.712 8.63219C120.779 8.782 120.886 8.91095 121.02 9.00552C121.154 9.10009 121.312 9.15679 121.475 9.16969L125.119 9.45862L122.118 12.159C121.858 12.3938 121.754 12.7552 121.85 13.0927L122.999 17.1148L119.572 14.8299C119.422 14.729 119.245 14.6751 119.063 14.6751C118.882 14.6751 118.705 14.729 118.555 14.8299L114.974 17.2175L115.937 13.0478C115.972 12.8944 115.968 12.7345 115.923 12.5835C115.879 12.4325 115.797 12.2955 115.684 12.1856L112.897 9.46871L116.649 9.16969V9.16969Z" fill="#F3CD03"/>
</svg>
